M48
; DRILL file {KiCad 9.0.2} date 2025-11-02T19:17:58-0300
; FORMAT={3:3/ absolute / metric / suppress leading zeros}
; #@! TF.CreationDate,2025-11-02T19:17:58-03:00
; #@! TF.GenerationSoftware,Kicad,Pcbnew,9.0.2
; #@! TF.FileFunction,Plated,1,2,PTH
FMAT,2
METRIC,TZ
; #@! TA.AperFunction,Plated,PTH,ComponentDrill
T1C0.800
; #@! TA.AperFunction,Plated,PTH,ComponentDrill
T2C1.000
; #@! TA.AperFunction,Plated,PTH,ComponentDrill
T3C1.100
; #@! TA.AperFunction,Plated,PTH,ComponentDrill
T4C1.700
%
G90
G05
T1
X34814Y-71628
X34818Y-64211
X37307Y-51918
X37314Y-71628
X37318Y-64211
X37378Y-43739
X39807Y-51918
X39878Y-43739
T2
X30480Y-32669
X30480Y-35209
X44552Y-70358
X44552Y-72898
X57785Y-33630
X57785Y-36170
X57785Y-38710
X57785Y-41250
X57785Y-43790
X57785Y-46330
X57785Y-48870
X57785Y-51410
X74865Y-63528
X74865Y-87528
X77368Y-42392
X77405Y-63528
X77405Y-87528
X79908Y-42392
X79945Y-63528
X79945Y-87528
X82448Y-42392
X82485Y-63528
X82485Y-87528
X84988Y-42392
X85025Y-63528
X85025Y-87528
X87528Y-42392
X87565Y-63528
X87565Y-87528
X90068Y-42392
X90105Y-63528
X90105Y-87528
X92608Y-42392
X92645Y-63528
X92645Y-87528
X95148Y-42392
X140190Y-33699
X140190Y-36239
X140190Y-38779
X140190Y-41319
X140190Y-43859
X140190Y-46399
X140190Y-48939
X140190Y-51479
X157309Y-63648
X157309Y-87648
X159783Y-42411
X159849Y-63648
X159849Y-87648
X162323Y-42411
X162389Y-63648
X162389Y-87648
X164863Y-42411
X164929Y-63648
X164929Y-87648
X167403Y-42411
X167469Y-63648
X167469Y-87648
X169943Y-42411
X170009Y-63648
X170009Y-87648
X172483Y-42411
X172549Y-63648
X172549Y-87648
X175023Y-42411
X175089Y-63648
X175089Y-87648
X177563Y-42411
X221285Y-33680
X221285Y-36220
X221285Y-38760
X221285Y-41300
X221285Y-43840
X221285Y-46380
X221285Y-48920
X221285Y-51460
X238455Y-63478
X238455Y-87478
X240995Y-42672
X240995Y-63478
X240995Y-87478
X243535Y-42672
X243535Y-63478
X243535Y-87478
X246075Y-42672
X246075Y-63478
X246075Y-87478
X248615Y-42672
X248615Y-63478
X248615Y-87478
X251155Y-42672
X251155Y-63478
X251155Y-87478
X253695Y-42672
X253695Y-63478
X253695Y-87478
X256235Y-42672
X256235Y-63478
X256235Y-87478
X258775Y-42672
T3
X34747Y-58029
X37287Y-58029
X39827Y-58029
T4
X40030Y-31244
X40030Y-35204
M30
